<svg xmlns="http://www.w3.org/2000/svg" xmlns:xlink="http://www.w3.org/1999/xlink" id="Layer_1" x="0" y="0" version="1.1" viewBox="0 0 972.8 486.1" xml:space="preserve" style="enable-background:new 0 0 972.8 486.1"><style type="text/css">.st0{fill:none}.st1{opacity:.8}.st2{fill:#fff}.st3{opacity:.6}.st4{fill:#464646}</style><g><path d="M490.5,527.1c79,0,134.9,8.2,134.9-56.5c0-53.8-44.3-99.1-104.6-112.9l-65.6,169.7 C466.7,527.3,478.5,527.1,490.5,527.1z" class="st0"/><path d="M339.3,470.6c0,54.9,51.9,57.3,115.9,56.8l65.6-169.7c-12.2-2.8-25.1-4.3-38.4-4.3 C403.4,353.5,339.3,405.9,339.3,470.6z" class="st0"/></g><g><path d="M607,477.9c0,44-29.6,49.3-75.3,49.5c55,0.2,91.6-3.8,93.6-52.5h-18.4C607,476,607,477,607,477.9z" class="st0"/><path d="M559,371.7l-1.8,5.4c-3,9,0.2,18.9,7.9,24.5c24.9,18.1,40.8,44.2,41.8,73.4h18.4c0.1-1.4,0.1-2.9,0.1-4.3 C625.4,429,598.9,392.5,559,371.7z" class="st0"/><path d="M454.3,378.5c7.5-1.4,13.8-6.4,16.8-13.3l5.1-11.5c-76.2,2.6-136.9,54-136.9,117c0,1.5,0,2.9,0.1,4.3h18.4 C359.4,427.8,400.1,388.7,454.3,378.5z" class="st0"/><path d="M357.7,477.9c0-1,0-2,0.1-3h-18.4c2.6,48.3,49,52.6,107.2,52.5C396.6,527.3,357.7,522.3,357.7,477.9z" class="st0"/><g class="st1"><path d="M339.3,470.6c0-62.3,59.4-113.2,134.3-116.9c1.6-0.1,3.1-1.1,3.7-2.5L603.5,63c7.9-20.5,22.6-32.8,41-25.6 l0,0c0,0,0,0,0.1,0v-0.1C595,21.2,541.6,12.5,486,12.5C222,12.5,8,209.2,8,452c0,6.4,0.1,12.7,0.5,19c0.1,2.2,2,4,4.2,4h322.3 C337.4,475,339.3,473.1,339.3,470.6C339.3,470.7,339.3,470.6,339.3,470.6z" class="st2"/></g><g class="st3"><path d="M655.5,83l-95.4,285.3c-0.6,1.9,0.2,4.1,2,5.1c38.2,21,63.3,56.7,63.3,97.2c0,0,0,0,0,0 c0,2.3,1.9,4.3,4.2,4.3h329.6c2.3,0,4.1-1.8,4.2-4c0.3-6.3,0.4-12.6,0.4-19c0-191.6-133.3-354.5-319.3-414.7v0.1 C662,44.1,663,63.7,655.5,83z" class="st2"/></g><path d="M446.7,527.5c2.8,0,5.7,0,8.5,0l0,0C452.3,527.4,449.5,527.5,446.7,527.5z" class="st4"/><g><path d="M559,371.7L655.5,83c7.5-19.3,6.5-38.8-10.9-45.6c0,0,0,0-0.1,0l0,0c-18.5-7.1-33.1,5.1-41,25.6L476.2,353.6 l-5.1,11.5c-3,7-9.4,11.9-16.8,13.3c-52.4,9.9-92.2,46.8-96.2,91.9c-0.2,2.5,1.8,4.6,4.2,4.6h240.2c2.5,0,4.5-2.1,4.2-4.6 c-2.4-27.3-18-51.7-41.5-68.8c-7.7-5.6-10.9-15.5-7.9-24.5L559,371.7z" class="st2"/></g></g></svg>