<svg xmlns="http://www.w3.org/2000/svg" xmlns:xlink="http://www.w3.org/1999/xlink" id="Layer_1" x="0" y="0" version="1.1" viewBox="0 0 468.5 231.4" xml:space="preserve" style="enable-background:new 0 0 468.5 231.4"><style type="text/css">.st0{display:none}.st1{display:inline}.st2{display:none;fill:none;stroke:#000;stroke-width:7;stroke-linecap:round;stroke-linejoin:round;stroke-miterlimit:10}.st3{fill:#647881}.st4{fill:#00b39f}.st5{fill:#00d3a9}.st6{fill:#9fbfcd}.st7{display:inline;fill:#00b39f}.st8{fill:#477e96}.st9{fill:#fff}.st10{fill:none}.st10,.st11,.st12{display:inline}.st11{fill:#3c494e}.st12{fill:#647881}.st13{fill:#b32700}.st13,.st14,.st15{display:inline}.st14{fill:#d32a00}.st15{fill:#e72a00}</style><g class="st0"><path d="M294.4,102.8" class="st1"/><path d="M13.7,148.7c2.1-4.5,5.1-8.3,8.2-12.1c11-14,24.3-25.6,39-35.5c12.9-8.5,26.7-15.4,41.3-20.4 c13.7-4.8,27.8-7.8,42.3-9.5c15-1.7,29.8-0.9,44.7,1.2c5.6,0.8,5.6,0.9,4.3,6.4c-0.9,3.9-0.9,3.9-4.9,3c-12.5-2.8-25.2-4.1-38-3.5 c-4.5,0.2-9,0.6-13.6,1.1c-32.6,3.2-61.7,15-88.1,34.1c-12.9,9.3-24.1,20.4-33.5,33.3C14.9,147.4,14.2,148,13.7,148.7z" class="st1"/><path d="M260.1,127.9c-1.7-1.2-3.9-2-5.3-3.8c-1.1-1.5,0.4-2.5,1.1-3.5c3.5-5.1,7.2-10.2,10.7-15.4 c1.2-1.8,2.1-2.1,3.9-0.8c4.6,3.3,4.6,3.2,1.3,7.8c-3.4,4.7-6.7,9.5-10.1,14.2C261.3,127,261.1,127.7,260.1,127.9z" class="st1"/><path d="M236.7,86.5c-0.1,0.3-0.3,0.8-0.5,1.2c-2.5,5.9-5,11.8-7.5,17.7c-1.3,3.1-1.6,3.3-4.8,1.9 c-5.1-2.2-4.3-1.5-2.4-5.9c2.3-5.6,4.9-11.1,7.1-16.8c0.7-1.8,1.7-2,3.2-1.3c1.2,0.6,2.4,1.1,3.7,1.6 C236.1,85.2,236.7,85.5,236.7,86.5z" class="st1"/><path d="M332.6,172.3c0,0.7-0.6,1-1.1,1.3c-6.2,3.7-12.4,7.4-18.6,11.2c-0.1,0.1-0.3,0.2-0.4,0.2 c-2.8-0.2-2.8-3.1-4.2-4.7c-0.8-0.8-0.6-1.9,0.5-2.5c6.2-3.7,12.4-7.4,18.7-11.1c0.5-0.3,1-0.5,1.6-0.2 C329.4,166.7,332.6,171.9,332.6,172.3z" class="st1"/><path d="M289.1,153.7c-0.6,0-0.9-0.3-1.3-0.7c-1-1.1-2-2.2-3.1-3.3c-1-1-0.9-1.8,0.1-2.7c5.2-4.8,10.4-9.6,15.5-14.4 c1-0.9,1.8-1,2.7,0c0.1,0.1,0.2,0.2,0.4,0.4c4.8,5.1,4.4,3.8-0.1,8c-4.1,3.9-8.3,7.7-12.5,11.5C290.4,153,289.9,153.6,289.1,153.7z" class="st1"/></g><g class="st0"><path d="M162.5,217.1c-1,0-2-0.4-2.7-1.3L19.4,46.1c-1.2-1.5-1-3.7,0.5-4.9s3.7-1,4.9,0.5l140.4,169.8 c1.2,1.5,1,3.7-0.5,4.9C164.1,216.8,163.3,217.1,162.5,217.1z" class="st1"/></g><g class="st0"><path d="M162.5,217.1c-1.3,0-2.5-0.7-3.1-1.9L55.7,7c-0.9-1.7-0.2-3.8,1.6-4.7C59,1.4,61.1,2.1,62,3.9L165.7,212 c0.9,1.7,0.2,3.8-1.6,4.7C163.6,217,163,217.1,162.5,217.1z" class="st1"/></g><g class="st0"><path d="M162.5,217.1c-0.3,0-0.6,0-1-0.1c-1.9-0.5-2.9-2.5-2.4-4.3l83.1-292.9c0.5-1.9,2.5-2.9,4.3-2.4 c1.9,0.5,2.9,2.5,2.4,4.3l-83.1,292.9C165.4,216.1,164,217.1,162.5,217.1z" class="st1"/></g><g class="st0"><path d="M162.5,217.1c-0.8,0-1.5-0.2-2.1-0.7L-5.9,87.2c-1.5-1.2-1.8-3.4-0.6-4.9s3.4-1.8,4.9-0.6l166.2,129.2 c1.5,1.2,1.8,3.4,0.6,4.9C164.6,216.6,163.6,217.1,162.5,217.1z" class="st1"/></g><g class="st0"><path d="M162.5,217.1c-0.6,0-1.1-0.1-1.7-0.4c-1.7-0.9-2.3-3.1-1.4-4.7L317.1-76.9c0.9-1.7,3.1-2.3,4.7-1.4 s2.3,3.1,1.4,4.7L165.6,215.3C165,216.4,163.8,217.1,162.5,217.1z" class="st1"/></g><g class="st0"><path d="M162.5,217.1c-1.6,0-3.1-1.2-3.4-2.8L112.3-22.9c-0.4-1.9,0.9-3.7,2.8-4.1s3.7,0.9,4.1,2.8L166,212.9 c0.4,1.9-0.9,3.7-2.8,4.1C163,217.1,162.7,217.1,162.5,217.1z" class="st1"/></g><g class="st0"><path d="M162.5,217.1c-0.1,0-0.1,0-0.2,0c-1.9-0.1-3.4-1.8-3.3-3.7l15.2-262.2c0.1-1.9,1.8-3.4,3.7-3.3 c1.9,0.1,3.4,1.8,3.3,3.7L166,213.8C165.9,215.7,164.4,217.1,162.5,217.1z" class="st1"/></g><path d="M184.2-39.8" class="st2"/><path d="M162.5,213.6" class="st2"/><g class="st0"><path d="M162.5,217.1c-0.8,0-1.7-0.3-2.3-0.9c-1.4-1.3-1.6-3.5-0.3-4.9L368.7-23.5c1.3-1.4,3.5-1.6,4.9-0.3 c1.4,1.3,1.6,3.5,0.3,4.9L165.1,215.9C164.4,216.7,163.5,217.1,162.5,217.1z" class="st1"/></g><g class="st0"><path d="M162.5,217.1c-1.1,0-2.2-0.5-2.9-1.5c-1.1-1.6-0.7-3.8,0.8-4.9l295.9-209c1.6-1.1,3.8-0.7,4.9,0.8 s0.7,3.8-0.8,4.9l-295.9,209C163.9,216.9,163.2,217.1,162.5,217.1z" class="st1"/></g><g class="st0"><path d="M162.5,217.1c-1.4,0-2.7-0.8-3.3-2.2c-0.7-1.8,0.2-3.8,2-4.5L587.8,44.5c1.8-0.7,3.8,0.2,4.5,2s-0.2,3.8-2,4.5 L163.8,216.9C163.4,217,162.9,217.1,162.5,217.1z" class="st1"/></g><g><g><path d="M96.8,73.7c10.3-5.4,20.9-10.3,31.8-14.4L125.9,46c-11.6,5.7-22.7,12-33.5,19L96.8,73.7z" class="st3"/></g><g><path d="M301.5,52L329,21c-17.3-3.8-35.3-6.1-53.7-6.9l-16,29.2C273.8,45.2,287.8,48.1,301.5,52z" class="st4"/></g><g><path d="M90.6,77l-4-8.1c-8.3,5.7-16.4,11.8-24.1,18.2l4.2,5C74.4,86.7,82.4,81.7,90.6,77z" class="st3"/></g><g><path d="M354.8,73.5L396,44.4c-18.6-9.2-38.4-16.4-59.1-21.6L309,54.2C324.8,59.3,340.1,65.8,354.8,73.5z" class="st5"/></g><path d="M60.9,96.2l-3.8-4.6c-7.2,6.2-14.1,12.7-20.6,19.6l3,2.4C46.4,107.5,53.5,101.7,60.9,96.2z" class="st6"/><g><path d="M403,48l-41.4,29.2c17.8,10.1,34.6,22.1,50.1,35.7L465.4,92C446.7,74.9,425.8,60,403,48z" class="st5"/></g><path d="M31.6,116.3c-10.5,11.5-20.2,23.7-29,36.5c9.7-12.3,20.3-23.9,31.7-34.4L31.6,116.3z" class="st6"/><g class="st0"><path d="M471,97.4l-53.5,20.8c62.5,58.2,102.1,144.4,102.1,240.6c0,56.6-13.7,109.6-37.7,155.6 c44.3-50.9,72.9-115.9,77.1-187.4C564.4,237,530,154.9,471,97.4z" class="st7"/></g><g><path d="M176.9,26.2L175.8,46c10.4-1.9,21-3.3,31.8-4l6.9-24.2C201.7,19.9,189.1,22.7,176.9,26.2z" class="st8"/></g><g><path d="M215,41.6c3.6-0.1,7.3-0.2,11-0.2c8.7,0,17.4,0.4,25.9,1.2L267.5,14c-15.4-0.2-30.6,0.7-45.5,2.7L215,41.6z" class="st4"/></g><g><path d="M135.2,56.8c10.9-3.8,22.1-7,33.5-9.4l1.1-19c-12.8,4-25.3,8.9-37.3,14.5L135.2,56.8z" class="st8"/></g></g><g><g><path d="M411.3,188.7c0,1.2-0.2,2.3-0.7,3.4c-0.5,1.1-1.1,2-1.9,2.8s-1.7,1.4-2.8,1.9c-1.1,0.5-2.2,0.7-3.4,0.7h-31.3 v-7.1h31.3c0.5,0,0.9-0.2,1.2-0.5c0.3-0.3,0.5-0.7,0.5-1.2V186c0-0.5-0.2-0.9-0.5-1.2s-0.7-0.5-1.2-0.5h-22.6 c-1.2,0-2.3-0.2-3.4-0.7s-2-1.1-2.8-1.9c-0.8-0.8-1.4-1.7-1.9-2.8s-0.7-2.2-0.7-3.4v-2.7c0-1.2,0.2-2.3,0.7-3.4 c0.5-1.1,1.1-2,1.9-2.8s1.7-1.4,2.8-1.9c1.1-0.5,2.2-0.7,3.4-0.7h31.3v7.1h-31.3c-0.5,0-0.9,0.2-1.2,0.5c-0.3,0.3-0.5,0.7-0.5,1.2 v2.7c0,0.5,0.2,0.9,0.5,1.2s0.7,0.5,1.2,0.5h22.6c1.2,0,2.3,0.2,3.4,0.7s2,1.1,2.8,1.9c0.8,0.8,1.4,1.7,1.9,2.8s0.7,2.2,0.7,3.4 V188.7z" class="st9"/></g><g><path d="M326.8,197.5h-7.1v-24.4c0-0.3-0.1-0.5-0.2-0.8c-0.1-0.2-0.2-0.4-0.4-0.6c-0.2-0.2-0.4-0.3-0.6-0.4 c-0.2-0.1-0.5-0.2-0.8-0.2h-32.8V164h32.8c1.2,0,2.4,0.2,3.5,0.7s2.1,1.1,2.9,1.9c0.8,0.8,1.5,1.8,1.9,2.9 c0.5,1.1,0.7,2.3,0.7,3.5v24.5H326.8z M292,197.5h-7.1v-26.4l7.1-1.9V197.5z M309.4,197.5h-7.1v-22.7h7.1V197.5z" class="st9"/></g><g><path d="M279.3,188.7c0,1.2-0.2,2.3-0.7,3.4c-0.5,1.1-1.1,2-1.9,2.8s-1.7,1.4-2.8,1.9c-1.1,0.5-2.2,0.7-3.4,0.7h-31.3 v-7.1h31.3c0.5,0,0.9-0.2,1.2-0.5c0.3-0.3,0.5-0.7,0.5-1.2V186c0-0.5-0.2-0.9-0.5-1.2s-0.7-0.5-1.2-0.5h-22.6 c-1.2,0-2.3-0.2-3.4-0.7c-1.1-0.5-2-1.1-2.8-1.9c-0.8-0.8-1.4-1.7-1.9-2.8s-0.7-2.2-0.7-3.4v-2.7c0-1.2,0.2-2.3,0.7-3.4 c0.5-1.1,1.1-2,1.9-2.8c0.8-0.8,1.7-1.4,2.8-1.9s2.2-0.7,3.4-0.7h31.3v7.1h-31.3c-0.5,0-0.9,0.2-1.2,0.5s-0.5,0.7-0.5,1.2v2.7 c0,0.5,0.2,0.9,0.5,1.2s0.7,0.5,1.2,0.5h22.6c1.2,0,2.3,0.2,3.4,0.7s2,1.1,2.8,1.9c0.8,0.8,1.4,1.7,1.9,2.8s0.7,2.2,0.7,3.4 L279.3,188.7L279.3,188.7z" class="st9"/></g><path d="M347.1,183.7h12.6c0.1,0,0.3,0,0.4,0c2.9,0,5.2-2.3,5.2-5.2V175v-2.3v-3.5c0-2.9-2.3-5.2-5.2-5.2 c-0.1,0-0.3,0-0.4,0h-19.1h-0.2H334v33.5h6.7l-0.1-27.1h17.2v2.3v2.3v2.3H344v6.4H347.1" class="st9"/></g><g><path d="M170,170.6c-11.7-0.9-21.9,7.8-22.8,19.4c-0.9,11.7,7.8,21.9,19.4,22.8c11.7,0.9,21.9-7.8,22.8-19.4 C190.4,181.7,181.7,171.5,170,170.6z M167.6,200.4c-4.8-0.4-8.3-4.6-8-9.4c0.4-4.8,4.6-8.3,9.4-8c4.8,0.4,8.3,4.6,8,9.4 C176.6,197.2,172.4,200.7,167.6,200.4z" class="st9"/><path d="M235.1,79c-2.6,1.8-5,3.7-7.5,5.6l-9.3,14.8l-18.7,29.5l-18.7,29.5l-4.7,7.4l-2.3,3.7 c-0.4,0.6-0.7,1.3-1.2,1.8c-0.5,0.6-1,1.1-1.2,1.8c-0.7,3-1.3,6-1.9,9.1c-0.1,0.3-0.1,0.6-0.1,0.9c2.6,0.4,4.8,1.8,6.1,3.9 c0.2-0.2,0.5-0.3,0.8-0.5c2.6-1.8,5-3.7,7.5-5.6c0.6-0.5,0.8-1.2,1.1-1.9s0.7-1.2,1.1-1.9l2.3-3.7l4.7-7.4l18.7-29.5l18.7-29.5 l9.3-14.8c0.7-3,1.3-6.1,1.9-9.2c0.6-3.1,1-6.2,1.4-9.4C240.3,75.4,237.7,77.1,235.1,79z" class="st9"/></g><g class="st0"><path d="M306.1,57.9l-18.3,20.5c13.2,4.2,26,9.5,38.3,15.7l24.8-17.5C336.6,69,321.6,62.7,306.1,57.9z" class="st10"/><path d="M257.5,47.6L246,68.7c11.6,1.7,23.2,4.2,34.4,7.5l18.2-20.5C285.2,51.9,271.5,49.2,257.5,47.6z" class="st10"/><path d="M42.7,115.7l3.1,2.4c7.2-4.9,14.6-9.5,22.3-13.8l-4.1-5C56.6,104.5,49.5,110,42.7,115.7z" class="st10"/><path d="M99.5,78.3l4.5,9c9.4-3.8,18.9-7.1,28.6-9.9l-2.5-12.5C119.6,68.8,109.4,73.3,99.5,78.3z" class="st10"/><path d="M17.7,140.1c7-6.2,14.4-12.1,22.1-17.7l-2.5-1.9C30.4,126.6,23.8,133.2,17.7,140.1z" class="st10"/><path d="M357.7,80.3L333,97.7c15.4,8.3,29.8,18.2,42.9,29.3l29.5-11.5C391.2,102.1,375.1,90.2,357.7,80.3z" class="st10"/><path d="M69.8,95.5l4.5,5.5c7.5-4,15.3-7.7,23.1-11l-4.2-8.4C85.2,85.8,77.4,90.5,69.8,95.5z" class="st10"/><path d="M175.9,51.6l-1,16.8c8.8-1.2,17.6-1.9,26.3-2.2l5.4-19.1C196.3,48,186.1,49.5,175.9,51.6z" class="st10"/><path d="M136.7,62.5l2.6,13c9.5-2.5,19-4.5,28.5-6.1l0.9-16.3C158,55.6,147.3,58.8,136.7,62.5z" class="st10"/><path d="M381.9,132.2c40.9,37.1,67.5,87.3,67.5,144.5c0,55.4-20.6,106-54.5,144.6c45.7-40.2,74.5-99,74.5-164.6 c0-52.9-22.7-99.8-58.4-135.9L381.9,132.2z" class="st10"/><path d="M229.4,46c-5.1,0-10.2,0.2-15.4,0.5L208.5,66c0.3,0,0.6,0,0.9,0c9.8,0,19.5,0.6,29.2,1.7L250,46.9 C243.1,46.3,236.3,46,229.4,46z" class="st10"/><path d="M64,99.4l4.1,5c2.1-1.2,4.2-2.3,6.3-3.4l-4.5-5.5C67.8,96.8,65.9,98.1,64,99.4z" class="st11"/><path d="M93.3,81.5l4.2,8.4c2.2-0.9,4.3-1.8,6.5-2.7l-4.5-9C97.4,79.3,95.3,80.4,93.3,81.5z" class="st12"/><path d="M206.6,47l-5.4,19.1c2.4-0.1,4.9-0.1,7.3-0.1l5.5-19.5C211.5,46.6,209,46.8,206.6,47z" class="st13"/><path d="M37.3,120.4l2.5,1.9c2-1.4,4-2.8,6-4.2l-3.1-2.4C40.9,117.3,39.1,118.8,37.3,120.4z" class="st11"/><path d="M250,46.9l-11.4,20.9c2.5,0.3,5,0.6,7.4,1l11.5-21.1C255,47.3,252.5,47.1,250,46.9z" class="st13"/><path d="M130.1,64.9l2.5,12.5c2.2-0.7,4.5-1.3,6.8-1.9l-2.6-13C134.5,63.2,132.3,64,130.1,64.9z" class="st12"/><path d="M168.8,53.1l-0.9,16.3c2.4-0.4,4.7-0.7,7.1-1l1-16.8C173.5,52.1,171.1,52.6,168.8,53.1z" class="st13"/><path d="M298.7,55.7l-18.2,20.5c2.5,0.7,4.9,1.5,7.4,2.2l18.3-20.5C303.6,57.1,301.2,56.4,298.7,55.7z" class="st14"/><path d="M350.9,76.6l-24.8,17.5c2.3,1.2,4.7,2.4,7,3.6l24.7-17.4C355.4,79,353.2,77.8,350.9,76.6z" class="st14"/><path d="M405.5,115.5L376,127c2,1.7,4,3.4,5.9,5.2l29.1-11.3C409.2,119.1,407.4,117.3,405.5,115.5z" class="st15"/></g></svg>