<svg width="278" height="78" viewBox="0 0 278 78" xmlns="http://www.w3.org/2000/svg"><title>wordmark-primary-horiz-orange</title><path d="M237.715 70.86l-.98 2.628 1.307.178-.082.485-1.795-.051-1.606.05-.081-.484 1.17-.153 3.7-9.08.898-.229 3.917 9.335 1.17.153-.081.484-2.068-.05-1.986.05-.082-.484 1.279-.179-1.007-2.627h-3.673v-.025zm1.986-4.36l-.108-.766-1.66 4.464h3.183l-1.415-3.699zm12.026 5.84c0 .612.081.816.19 1.046h.762l.054.484-1.931.357-.408-1.147-2.177 1.275c-1.986 0-2.312-.663-2.312-2.296v-3.672l-1.062.076-.081-.535 1.796-.357.734-.051v4.667c0 .74.327 1.046 1.061 1.046.463 0 1.061-.358 1.633-.715l.299-.178v-3.953l-.898.076-.082-.535 1.66-.357.762-.051v4.82zm5.686-4.004a2.49 2.49 0 0 0-1.143-.306c-.571 0-1.142.306-1.142.816 0 .459.38.74 1.033 1.045l1.143.536c1.007.485 1.415 1.02 1.415 1.81 0 1.276-1.088 1.735-2.802 2.092-.925 0-1.878-.433-2.286-.637l-.272-1.582h.952l.517 1.174a2.36 2.36 0 0 0 1.225.357c.789 0 1.197-.485 1.197-1.072 0-.535-.327-.79-1.089-1.173l-1.17-.586c-.652-.306-1.25-.842-1.25-1.633 0-.969.979-1.53 2.72-1.887.816 0 1.687.332 2.122.638v1.402h-.79l-.38-.994zm1.823.025v-.23l.517-.484h.98v-.918l.979-.918h.38v1.913h2.259v.637h-2.231v4.106c0 .408.163.842.789.842.435 0 .762-.153 1.17-.332l.244.485-1.74.918c-1.688 0-1.905-.56-1.905-1.836V68.36h-1.442zm7.754 5.764l-1.714.051-.082-.484 1.034-.128v-5.126l-1.034.076-.082-.484 1.796-.434.735-.05v6.018l1.115.128-.081.484-1.687-.05zm-.735-9.666l1.088-.076.409.076.081.79-.163.664-1.061.076-.408-.076-.082-.79.136-.664zm5.006 9.666l-1.714.051-.081-.484 1.033-.128v-5.126l-1.033.076-.082-.484 1.796-.434.653-.05.081 1.172 2.204-1.351c1.904 0 2.23.612 2.23 2.295v3.902l1.144.128-.082.484-1.714-.05-1.442.05-.082-.484.762-.128V69.56c0-.74-.354-1.046-.98-1.046-.516 0-1.033.306-1.55.638l-.463.28v4.158l.817.127-.082.485-1.415-.077zm-48.319-6.784c1.877 0 2.367.46 2.367 2.219v2.754c0 .612.109.817.245 1.046h.762l.054.485-1.932.357-.462-1.071-1.768 1.224c-1.28 0-2.204-.663-2.204-1.786 0-.51.19-.867.517-1.3l3.373-1.046v-.689c0-.841-.081-1.351-.87-1.351-.408 0-.898.127-1.225.255l-.244 1.122h-1.28v-1.071l2.667-1.148zm.925 3.443l-2.176.842c-.218.204-.3.484-.3.79 0 .715.436.97.87.97.409 0 .79-.23.98-.358l.626-.408v-1.836zm2.422-2.423v-.23l.516-.484h.98v-.918l.98-.918h.38v1.913h2.258v.637h-2.258v4.106c0 .408.163.842.79.842.435 0 .761-.153 1.196-.332l.245.485-1.741.918c-1.687 0-1.905-.56-1.905-1.836V68.36h-1.441zm-39.423 5.815l-2.421-.05-2.503.05-.082-.484 1.796-.179V65.02l-2.259.026-.68 1.785h-.598v-2.474l4.298.051 4.3-.05v2.473h-.572l-.68-1.785-2.259-.026v8.493l1.714.179-.054.484zm2.666-3.596c0 1.607.925 2.729 2.476 2.729.599 0 1.306-.255 1.877-.587l.245.536c-.707.46-1.66.867-2.612 1.097-1.822 0-3.428-1.199-3.428-3.418 0-2.066 1.333-3.188 3.374-3.596 1.986 0 2.639 1.173 2.639 2.627v.587h-4.57v.025zm2.993-.714c0-1.071-.218-1.836-1.388-1.836-.897 0-1.496.79-1.605 1.963l2.993-.127zm4.979 3.8l-.082.485-1.17-.051-1.55.05-.082-.484 1.061-.127 2.204-2.55-2.177-2.78-.925-.154.082-.51 1.714.051 1.415-.05.081.51-.598.152 1.115 1.556.109.357 1.415-1.913-.735-.153.082-.51 1.17.051 1.55-.05.082.51-1.088.152-1.986 2.245 2.34 3.111.924.128-.081.484-1.714-.05-1.415.05-.082-.484.626-.128-1.333-1.81-.109-.332-1.578 2.142.735.102zm8.488-6.325c1.878 0 2.367.46 2.367 2.219v2.754c0 .612.11.817.245 1.046h.735l.054.485-1.931.357-.463-1.071-1.796 1.224c-1.278 0-2.203-.663-2.203-1.786 0-.51.19-.867.517-1.3l3.373-1.046v-.689c0-.841-.081-1.351-.87-1.351-.409 0-.898.127-1.225.255l-.245 1.122h-1.278v-1.071l2.72-1.148zm.925 3.443l-2.176.842c-.218.204-.3.484-.3.79 0 .715.436.97.871.97.408 0 .79-.23.98-.358l.625-.408v-1.836zm7.129-2.448c-.164-.077-.599-.306-1.143-.306-.572 0-1.143.306-1.143.816 0 .459.381.74 1.034 1.045l1.143.536c1.006.485 1.414 1.02 1.414 1.81 0 1.276-1.088 1.735-2.802 2.092-.898 0-1.877-.433-2.285-.637l-.272-1.582h.952l.517 1.174c.326.204.762.357 1.224.357.79 0 1.197-.485 1.197-1.072 0-.535-.299-.79-1.088-1.173l-1.17-.586c-.653-.306-1.251-.842-1.251-1.633 0-.969.98-1.53 2.72-1.887.816 0 1.687.332 2.122.638v1.402h-.789l-.38-.994zm-43.885 2.372c0 2.091-1.36 3.29-3.673 3.647-1.986 0-3.346-1.454-3.346-3.341 0-2.117 1.36-3.29 3.673-3.673 2.013 0 3.346 1.454 3.346 3.367zm-3.292 2.958c1.197 0 1.823-1.148 1.823-2.652 0-1.786-.925-2.984-2.204-2.984-1.224 0-1.823 1.147-1.823 2.678-.027 1.606.871 2.958 2.204 2.958zm6.666-5.968h1.877v.663h-1.877v5.178l1.714.102-.082.535-2.312-.05-1.714.05-.082-.484 1.061-.128v-5.177h-1.306v-.23l.463-.484h.87v-.128c0-.842.272-1.403.816-1.964l1.252-1.326h1.877v1.122h-1.931l-.3.383c-.217.255-.326.663-.326 1.581v.357zm-72.887-2.882l.082-.484 1.904.05 1.741-.05.082.484-1.279.179v5.713c0 1.836-.789 3.035-3.781 3.698-2.939 0-4-1.48-4-3.724v-5.687l-1.36-.179.081-.484 2.068.05 2.04-.05.082.484-1.278.179v5.891c0 1.734.789 2.73 2.503 2.73 1.55 0 2.421-.97 2.421-2.78v-5.867l-1.306-.153zm5.85 9.31l-1.715.05-.081-.484 1.034-.128v-5.126l-1.034.076-.082-.484 1.796-.434.653-.05.081 1.172 2.204-1.351c1.905 0 2.231.612 2.231 2.295v3.902l1.143.128-.082.484-1.714-.05-1.442.05-.081-.484.761-.128V69.56c0-.74-.353-1.046-.98-1.046-.516 0-1.033.306-1.55.638l-.435.28v4.158l.816.127-.082.485-1.442-.077zm8.57 0l-1.714.05-.082-.484 1.034-.128v-5.126l-1.034.076-.082-.484 1.796-.434.762-.05v6.018l1.115.128-.081.484-1.714-.05zm-.762-9.667l1.088-.076.408.076.082.79-.163.664-1.062.076-.408-.076-.081-.79.136-.664zm6.774 8.799l1.823-5.075-.68-.153.082-.485 1.305.051 1.252-.05.082.484-.953.153-2.448 5.764-1.088.433-2.612-6.197-.925-.153.081-.485 1.714.051 1.578-.05.082.484-.98.153 1.633 4.106.054.969zm5.278-2.678c0 1.607.925 2.729 2.476 2.729.599 0 1.306-.255 1.877-.587l.245.536c-.707.46-1.66.867-2.612 1.097-1.822 0-3.455-1.199-3.455-3.418 0-2.066 1.333-3.188 3.374-3.596 1.986 0 2.639 1.173 2.639 2.627v.587h-4.544v.025zm3.02-.714c0-1.071-.217-1.836-1.387-1.836-.925 0-1.497.79-1.605 1.963l2.992-.127zm4.898-.485l1.714-1.963h1.197v1.402h-1.116c-.354.077-1.007.536-1.415.995l-.299.332v3.34l1.578.128-.082.536-2.176-.051-1.687.05-.081-.484 1.033-.127v-5.127l-1.033.077-.082-.485 1.796-.433.598-.051.055 1.861zm7.617-1.045c-.163-.077-.598-.306-1.142-.306-.572 0-1.143.306-1.143.816 0 .459.38.74 1.034 1.045l1.143.536c1.006.485 1.414 1.02 1.414 1.81 0 1.276-1.088 1.735-2.802 2.092-.925 0-1.877-.433-2.285-.637l-.272-1.582h.952l.517 1.174c.326.204.762.357 1.224.357.789 0 1.197-.485 1.197-1.072 0-.535-.3-.79-1.088-1.173l-1.17-.586c-.653-.306-1.252-.842-1.252-1.633 0-.969.98-1.53 2.721-1.887.816 0 1.687.332 2.122.638v1.402h-.789l-.38-.994zm4.136 5.79l-1.714.05-.082-.484 1.034-.128v-5.126l-1.034.076-.081-.484 1.795-.434.735-.05v6.018l1.115.128-.081.484-1.687-.05zm-.735-9.667l1.088-.076.409.076.081.79-.163.664-1.061.076-.408-.076-.082-.79.136-.664zm8.162 12.982v-1.403h1.279l1.496-2.117-.598.179-2.503-5.917h-2.258v4.284c0 .408.163.842.789.842.435 0 .897-.204 1.305-.383l.245.485-1.877.97c-1.687 0-1.904-.562-1.904-1.837V68.36h-1.442v-.23l.517-.484h.979v-.918l.98-.918h.38v1.76h4.707l.082.484-.98.153 1.66 4.106.109.97 1.85-5.076-.68-.153.081-.484 1.306.05 1.252-.05.081.484-.952.153-2.421 5.739-1.687 3.545h-1.796v-.051zm-71.445-3.316l-1.414.051-.082-.484.735-.128V69.56c0-.74-.354-1.046-.953-1.046-.462 0-1.033.306-1.578.638l-.435.255v4.157l.816.128-.081.484-1.415-.05-1.578.05-.082-.484.898-.128V64.97l-.544.077-3.047-.051v8.493l1.714.178-.082.485-2.421-.051-2.503.05-.082-.484 1.796-.178v-8.493l-2.258.05-.68 1.76h-.572v-2.473l4.299.025 3.673-.025 1.605-.179h.517v4.54l2.176-1.326c1.905 0 2.231.663 2.231 2.448v3.724l1.116.127-.082.485-1.687-.026zm3.891-3.545c0 1.607.925 2.729 2.476 2.729.598 0 1.306-.255 1.877-.587l.245.536c-.707.46-1.66.867-2.612 1.097-1.823 0-3.455-1.199-3.455-3.418 0-2.066 1.333-3.188 3.373-3.596 1.987 0 2.64 1.173 2.64 2.627v.587h-4.544v.025zm2.993-.714c0-1.071-.218-1.836-1.388-1.836-.925 0-1.496.79-1.605 1.963l2.993-.127zm177.161-44.598c5.53 2.385 10.355 5.883 10.355 13.04 0 6.588-4.472 12.96-17.646 15.697-6.452 0-10.789-1.843-14.503-4.771l-1.545-9.462h4.907l2.44 5.964c2.086 2.603 5.936 4.42 9.866 4.42 6.018 0 9.515-3.769 9.515-8.893 0-4.771-3.09-7.51-7.292-9.326l-8.485-3.714c-5.041-2.17-9.189-5.395-9.189-11.631 0-7.645 7.02-12.119 16.752-14.152 4.419 0 9.325 1.464 12.822 4.067v9.461h-3.497l-2.033-6.37c-1.816-1.898-4.066-3.444-8.267-3.444-5.557 0-8.837 3.01-8.837 7.7 0 3.85 2.737 6.235 6.587 7.916l8.05 3.498zM218.565 3.009l18.297 46.686 5.476.759-.353 2.44-9.677-.217-9.243.217-.353-2.44 5.964-.922-4.771-13.095H206.61l-4.554 13.095 6.099.922-.353 2.44-8.403-.217-5.747.163-8.186-.163-10.03.217-.352-2.522 5.963-.921-10.897-17.406-11.954 17.46 5.747.84-.353 2.522-8.186-.217-7.834.217-.352-2.522 5.475-.759 15.126-20.821-14.502-21.933-5.476-.76.353-2.44 10.03.272 9.948-.271.352 2.44-5.964.922 9.895 16.402 11.113-16.348-6.099-.922.353-2.44 8.186.217 8.186-.217.353 2.44-5.476.76-14.367 19.763 15.56 22.91 3.361.514 3.361-.46 17.376-45.412 4.202-1.193zm-10.87 30.04h14.909l-7.645-21.012-7.264 21.011zm-70.452 16.266l4.69-9.462h2.656l-2.44 12.96-27.811-.217-9.677.216-.353-2.44 6.316-.921V6.995l-6.316-.922.353-2.44 9.677.217 27.812-.217.705 12.607h-2.386l-3.93-9.11-18.569-.217v18.653l9.813-.298 2.792-7.348h2.467l-.705 8.757.705 9.462h-2.467l-2.792-7.347-9.813-.298v21.038l19.273-.217zM60.178 3.633l20.113.217 20.168-.217v12.39h-2.738L94.495 7.13l-10.49-.135V49.45l8.05.921-.352 2.44-11.357-.216-11.765.216-.352-2.44 8.403-.921V6.995l-10.49.135-3.226 8.893h-2.738V3.633zM47.329 1.708v20.008c0 7.401-.732 16.944-6.451 25.322a32.602 32.602 0 0 1-4.12 4.853l-.028.027c-3.117 2.982-7.21 5.802-13.065 9.055-5.856-3.253-9.976-6.073-13.066-9.055l-.027-.027c-1.6-1.546-2.955-3.118-4.12-4.853C.731 38.688 0 29.118 0 21.716V1.708L.949 1.6C1.084 1.572 13.77 0 23.665 0c9.894 0 22.58 1.572 22.715 1.6l.949.108zm-8.24 44.11c5.34-7.835 6.044-16.945 6.044-24.02l-21.468-1.194-21.496 1.193c0 7.076.704 16.186 6.072 24.02a30.45 30.45 0 0 0 3.903 4.583c4.717 4.337 10.03 6.723 11.52 7.347 1.491-.624 6.804-3.01 11.521-7.347 1.518-1.464 2.792-2.956 3.903-4.582zM3.333 3.524L2.196 19.276h42.937L44.022 3.524c-4.012-.433-12.984-1.328-20.357-1.328-7.374 0-16.346.895-20.33 1.328zm35.619 30.799l-.596.135c-.055.407-.136.84-.299 1.22.705-.434 1.518-.732 2.359-.786l.596-.054v.596a5.088 5.088 0 0 1-1.328 3.552 5.162 5.162 0 0 1-3.416 1.68l-.515.055a5.94 5.94 0 0 1-.542 1.111 5.24 5.24 0 0 1 1.816-.325c.217 0 .434 0 .65.027l.57.082-.108.569a5.373 5.373 0 0 1-2.06 3.226 5.072 5.072 0 0 1-3.036.976c-.217 0-.434 0-.651-.027l-.515-.054c-.217.352-.46.678-.759.976a5.092 5.092 0 0 1 2.467.217l.542.19-.217.542a5.19 5.19 0 0 1-2.656 2.71 4.99 4.99 0 0 1-2.088.462 5.255 5.255 0 0 1-1.707-.299l-.407-.135c-.678.57-1.437 1.139-2.494 1.87.488.326 1.003.678 1.6 1.058l-1.03.623c-.57-.38-1.085-.732-1.546-1.03-.46.326-.976.65-1.545 1.03l-1.03-.623c.596-.407 1.111-.732 1.6-1.057-1.058-.732-1.817-1.302-2.495-1.871l-.406.135a5.264 5.264 0 0 1-1.708.299c-.705 0-1.41-.163-2.087-.461a5.097 5.097 0 0 1-2.657-2.711l-.216-.543.542-.19a5.092 5.092 0 0 1 2.466-.216 5.245 5.245 0 0 1-.759-.976l-.515.054c-.216.027-.433.027-.65.027a5.072 5.072 0 0 1-3.036-.976 5.141 5.141 0 0 1-2.06-3.226l-.109-.57.57-.08c.216-.028.433-.028.65-.028a5.13 5.13 0 0 1 1.816.325 4.706 4.706 0 0 1-.542-1.111l-.515-.054a5.162 5.162 0 0 1-3.415-1.681 5.166 5.166 0 0 1-1.329-3.552v-.596l.57.054c.84.054 1.653.325 2.358.786a6.67 6.67 0 0 1-.298-1.22l-.488-.135a5.172 5.172 0 0 1-2.982-2.359 5.211 5.211 0 0 1-.57-3.768l.136-.57.57.163a5.93 5.93 0 0 1 1.734.922 4.607 4.607 0 0 1 0-1.925 5.216 5.216 0 0 1 2.033-3.226l.434-.38.298.488c.705 1.112.95 2.44.705 3.741a5.23 5.23 0 0 1-2.033 3.2c.217.433.352.894.407 1.382a4.935 4.935 0 0 1 1.572-2.223l.46-.38.353.488a5.23 5.23 0 0 1 .922 3.688 5.111 5.111 0 0 1-1.844 3.334l-.027.027c.299.407.542.868.705 1.329.136-.922.488-1.79 1.084-2.522l.353-.46.434.406a5.163 5.163 0 0 1 1.68 3.416 5.217 5.217 0 0 1-1.111 3.66l-.027.027c.38.326.704.705.976 1.139-.055-.922.108-1.844.542-2.684l.27-.515.516.298a5.229 5.229 0 0 1 2.358 3.01 5.265 5.265 0 0 1-.352 3.795l-.027.027c.46.244.84.57 1.192.922-.244-.895-.27-1.844-.027-2.738l.136-.57.542.19a5.174 5.174 0 0 1 2.927 2.467 5.185 5.185 0 0 1 .461 3.66c.163.109.326.217.515.353.163-.109.353-.244.515-.353a5.185 5.185 0 0 1 .461-3.66 5.352 5.352 0 0 1 2.928-2.467l.542-.19.135.57a5.212 5.212 0 0 1-.027 2.738 4.86 4.86 0 0 1 1.166-.922v-.027c-.596-1.193-.732-2.521-.352-3.796a5.229 5.229 0 0 1 2.358-3.009l.515-.298.27.515c.435.84.597 1.762.543 2.684.271-.407.596-.813.976-1.139l-.027-.027a5.188 5.188 0 0 1-1.112-3.633 5.223 5.223 0 0 1 1.681-3.416l.434-.406.352.46c.597.76.949 1.627 1.084 2.522.163-.488.407-.922.705-1.329l-.027-.027c-1.003-.84-1.68-2.033-1.843-3.334-.19-1.302.163-2.603.922-3.687l.352-.488.46.38a5.15 5.15 0 0 1 1.573 2.222 6.22 6.22 0 0 1 .407-1.382c-1.058-.787-1.79-1.898-2.033-3.2-.244-1.3 0-2.63.704-3.74l.298-.489.461.353a5.216 5.216 0 0 1 2.033 3.226c.109.65.109 1.301 0 1.925a5.094 5.094 0 0 1 1.735-.922l.57-.163.135.57a5.211 5.211 0 0 1-.57 3.768 5.09 5.09 0 0 1-2.981 2.359zm-.027 3.93a3.863 3.863 0 0 0 1.03-2.195 4.04 4.04 0 0 0-2.06 1.22 4.033 4.033 0 0 0-1.03 2.196c.786-.19 1.518-.597 2.06-1.22zm-2.955-4.77a4.195 4.195 0 0 0 1.003 2.195 4.04 4.04 0 0 0 .407-2.386 4.193 4.193 0 0 0-1.003-2.196 4.04 4.04 0 0 0-.407 2.386zm1.627-6.236a4.335 4.335 0 0 0 1.138 2.141c.325-.759.434-1.6.271-2.412a4.23 4.23 0 0 0-1.138-2.142 4.087 4.087 0 0 0-.271 2.413zm3.957 1.816a3.942 3.942 0 0 0-1.762 1.627 4.265 4.265 0 0 0-.542 2.358 4.087 4.087 0 0 0 1.762-1.626 4.265 4.265 0 0 0 .542-2.359zm-6.045 15.48a4.032 4.032 0 0 0 1.437-1.924 4.12 4.12 0 0 0-2.277.786c-.65.488-1.166 1.139-1.437 1.925a4.12 4.12 0 0 0 2.277-.786zm-1.924-5.313a4.37 4.37 0 0 0 .515 2.358c.515-.65.84-1.436.894-2.25a3.937 3.937 0 0 0-.515-2.358c-.515.65-.84 1.41-.894 2.25zm-2.142 5.558c.244-.787.217-1.627-.027-2.413a4.227 4.227 0 0 0-1.328 2.006c-.244.786-.217 1.627.027 2.413a4.227 4.227 0 0 0 1.328-2.006zm1.247 3.578a4.209 4.209 0 0 0-2.385.298 4.162 4.162 0 0 0-1.816 1.6c.244.027.488.054.731.054.57 0 1.139-.108 1.654-.352a4.162 4.162 0 0 0 1.816-1.6zm-7.102.326a3.792 3.792 0 0 0-.46 2.358 3.995 3.995 0 0 0 1.707-1.708 4.19 4.19 0 0 0 .46-2.358 4.312 4.312 0 0 0-1.707 1.708zm-9.19 1.274a4.209 4.209 0 0 0 2.386.298 4 4 0 0 0-1.816-1.6c-.759-.352-1.572-.433-2.385-.298a4 4 0 0 0 1.816 1.6zm-.596-5.178a4.227 4.227 0 0 0 1.329 2.006c.244-.786.27-1.627.027-2.413a4.227 4.227 0 0 0-1.328-2.006c-.244.786-.272 1.626-.028 2.413zm4.148 2.223a4.068 4.068 0 0 0 .46 2.331 4 4 0 0 0 1.708 1.708 4.203 4.203 0 0 0-.46-2.358 4.085 4.085 0 0 0-1.708-1.681zm-8.214-2.467a4.334 4.334 0 0 0 2.25.786 3.908 3.908 0 0 0-1.436-1.925 4.12 4.12 0 0 0-2.277-.786c.298.759.786 1.437 1.463 1.925zm1.03-7.537c-.406.705-.569 1.518-.542 2.358.082.84.38 1.6.895 2.25a4.162 4.162 0 0 0 .542-2.358 4.22 4.22 0 0 0-.895-2.25zm-4.445 1.247a3.766 3.766 0 0 0 2.06 1.22c-.136-.814-.488-1.6-1.03-2.196a4.118 4.118 0 0 0-2.06-1.22 4.455 4.455 0 0 0 1.03 2.196zm-.298-5.206a3.85 3.85 0 0 0-.542-2.358 4.087 4.087 0 0 0-1.762-1.627 4.213 4.213 0 0 0 .542 2.359 4.087 4.087 0 0 0 1.762 1.626zm.217-6.072c-.136.813-.055 1.653.27 2.385a4.136 4.136 0 0 0 1.14-2.141 4.229 4.229 0 0 0-.272-2.386 4.136 4.136 0 0 0-1.138 2.142zm1.653 6.316a4.04 4.04 0 0 0 .407 2.386 4.193 4.193 0 0 0 1.003-2.196 4.004 4.004 0 0 0-.407-2.386 4.193 4.193 0 0 0-1.003 2.196zm3.74-4.175c-.053 0-.053-.027-.053-.081.027-.027.054-.027.081-.027h7.59l2.358-7.239c0-.027.027-.054.055-.054.027 0 .054.027.054.054l2.358 7.239h7.617c.027 0 .054 0 .054.027.027.054 0 .081-.027.081l-6.153 4.474 2.358 7.265c.027 0 .027.028 0 .055H29.9l-6.207-4.5-6.208 4.5h-.027c-.027 0-.027-.027-.027-.027l2.358-7.293-6.153-4.474zm8.62 1.247l-3.821.272 2.955 2.44-.95 3.687 3.227-2.034 3.225 2.034-.948-3.687 2.927-2.44-3.795-.244-1.41-3.552-1.41 3.524zm13.527-20.17v-.027h-1.003v2.223h1.003v1.626h-1.003v3.037H34.1c-1.518 0-3.036-.244-4.5-.461-1.22-.19-2.385-.38-3.388-.38-.814 0-1.41.109-1.87.353H23.04c-.46-.244-1.057-.353-1.87-.353-.976 0-2.142.19-3.389.38-1.436.217-2.954.46-4.5.46h-.677v-3.036h-1.003V12.39h1.003v-2.223h-1.003V8.54h1.003V5.748h.677c1.437 0 2.874-.19 4.256-.407 1.247-.163 2.44-.353 3.551-.353 1.03 0 1.898.163 2.603.488.704-.325 1.572-.488 2.602-.488 1.084 0 2.277.163 3.55.353 1.383.19 2.82.407 4.257.407h.677v2.82h1.003v1.626zm-18.243 5.042c1.274-.19 2.494-.38 3.606-.38.596 0 1.11.055 1.572.164l.244-7.185V6.642c-.488-.217-1.112-.325-1.898-.325-1.003 0-2.141.163-3.361.352a42.475 42.475 0 0 1-3.307.38l-.298 8.594c1.138-.054 2.304-.217 3.442-.407zm12.253 0c1.138.19 2.304.353 3.442.407l-.298-8.594a41.012 41.012 0 0 1-3.307-.38c-1.22-.19-2.358-.352-3.361-.352-.786 0-1.383.108-1.898.325v1.193l.244 7.185a6.805 6.805 0 0 1 1.572-.163c1.112 0 2.332.19 3.606.38zm-13.066-4.69h.027v1.112l-1.3.162.026-1.111 1.247-.163zm1.816-2.738c1.112-.163 2.196-.271 3.172-.163l-.027 1.085c-.922-.082-1.98.027-3.145.19V7.808zm-.813 5.097h.054v1.139h-.054c-.759.108-1.545.216-2.331.298l.027-1.112c.705-.081 1.41-.19 2.114-.298.055 0 .109-.027.19-.027zm.813-.109c1.057-.135 2.06-.244 2.982-.19l-.027 1.085c-.867-.054-1.87.054-2.955.217v-1.112zm-.976-2.358c1.437-.217 2.82-.407 4.066-.326l-.027 1.085c-1.111-.081-2.44.108-3.903.325-.054.027-.081.027-.136.027v-1.111zM28.3 7.754v1.111c-.976-.135-1.87-.19-2.657-.135l-.027-1.085c.84-.081 1.735 0 2.684.109zm3.47.46l.027 1.112c-.732-.081-1.437-.19-2.142-.298-.19-.027-.352-.054-.542-.081V7.835c.244.054.46.081.705.109.65.108 1.301.19 1.952.27zm-3.687 2.007v1.084c-.84-.108-1.626-.162-2.331-.108l-.027-1.085c.732-.027 1.518.028 2.358.109zm3.768.488l.027 1.111c-.759-.08-1.49-.19-2.223-.298-.244-.027-.515-.081-.759-.108v-1.112c.298.054.624.082.922.136.678.081 1.355.19 2.033.27zm-2.142 3.307h.028v-1.138c.054.027.08.027.108.027.678.108 1.382.217 2.114.298l.027 1.112a51.814 51.814 0 0 1-2.277-.299zm-.813-1.22v1.085c-1.111-.163-2.168-.271-3.063-.217l-.027-1.084c.949-.055 2.006.054 3.09.216zm-11.168-4.88v1.112h-.054c-.705.108-1.41.217-2.142.298l.027-1.111c.651-.082 1.302-.163 1.952-.271.082 0 .136 0 .217-.028z" fill="#BF5700"/></svg>