<svg xmlns="http://www.w3.org/2000/svg" xmlns:xlink="http://www.w3.org/1999/xlink" id="Layer_1" x="0" y="0" version="1.1" viewBox="0 0 576.9 94.2" xml:space="preserve" style="enable-background:new 0 0 576.9 94.2"><style type="text/css">.st0{fill:#3c494f}.st1{fill:#00b39f}.st2{fill:#00d3a9}</style><title>layer5-white-bg-no-trim</title><polygon points="18.8 0 0 0 0 93.8 88.9 93.8 88.9 75 18.8 75" class="st0"/><polygon points="135.8 0 98.3 93.8 119.7 93.8 145.2 28.1 163.4 75 132.2 75 125.2 93.8 192.1 93.8 154.6 0" class="st0"/><polygon points="218.6 32.8 195.1 0 171.7 0 209.2 56.3 209.2 93.8 228 93.8 228 56.3 265.5 0 242.3 0" class="st0"/><polygon points="273.6 14.8 273.6 18.8 273.6 37.5 273.6 60.4 273.6 93.8 362.5 93.8 362.5 75 292.3 75 292.3 60.4 292.3 56.3 346.2 56.3 346.2 37.5 292.3 37.5 292.3 18.8 362.5 18.8 362.5 0 273.6 0" class="st0"/><path d="M392.9,17.9H441v19.5h-42.9l0.2,17.9h12.9l34,38.5h23.2l-34-38.5h13.3c8,0,14.6-6.5,14.6-14.5c0,0,0,0,0,0V14.6	c0-8-6.5-14.6-14.6-14.6c0,0,0,0,0,0h-73v93.8h18.8L392.9,17.9z" class="st0"/><rect id="_Path_" width="36.9" height="17.8" x="536.6" y=".4" class="st1"/><path id="_Path_2" d="M576.9,60.3V53c0-8.5-7.1-15.4-15.9-15.4h-59.6v-4.9h-21.8v21h75.5v6.6L576.9,60.3z" class="st1"/><polygon id="_Path_3" points="501.4 26.9 501.4 18.2 530.6 18.2 530.6 .4 479.5 .4 479.5 26.9" class="st2"/><path id="_Path_4" d="M555.1,66.1v10.3h-29.2v17.8h36c8.1,0.1,14.8-6.4,15-14.5V66.1H555.1z" class="st2"/><path id="_Path_5" d="M499.6,67v9.4h20.2v17.8h-26c-8.1,0.1-14.8-6.4-15-14.5V67H499.6z" class="st1"/></svg>